HIERARCHY
ROOT Hips
{
  OFFSET 0 0 0
  CHANNELS 6 Xposition Yposition Zposition Yrotation Xrotation Zrotation
  JOINT Chest
  {
    OFFSET 0 10.6789 0.00628
    CHANNELS 3 Yrotation Xrotation Zrotation
    JOINT Chest2
    {
      OFFSET 0 10.4912 -0.011408
      CHANNELS 3 Yrotation Xrotation Zrotation
      JOINT Chest3
      {
        OFFSET 0 9.47934 0
        CHANNELS 3 Yrotation Xrotation Zrotation
        JOINT Chest4
        {
          OFFSET 0 9.47934 0
          CHANNELS 3 Yrotation Xrotation Zrotation
          JOINT Neck
          {
            OFFSET 0 13.5353 0
            CHANNELS 3 Yrotation Xrotation Zrotation
            JOINT Head
            {
              OFFSET 0 8.81908 -0.027129
              CHANNELS 3 Yrotation Xrotation Zrotation
              End Site
              {
                OFFSET 0 16.9666 -0.01417
              }
            }
          }
          JOINT RightCollar
          {
            OFFSET -3.01255 7.54515 0
            CHANNELS 3 Yrotation Xrotation Zrotation
            JOINT RightShoulder
            {
              OFFSET -13.6831 0 0
              CHANNELS 3 Yrotation Xrotation Zrotation
              JOINT RightElbow
              {
                OFFSET -26.36 0 0
                CHANNELS 3 Yrotation Xrotation Zrotation
                JOINT RightWrist
                {
                  OFFSET -21.7467 0 0.008601
                  CHANNELS 3 Yrotation Xrotation Zrotation
                  End Site
                  {
                    OFFSET -16.3481 0 0
                  }
                }
              }
            }
          }
          JOINT LeftCollar
          {
            OFFSET 3.01255 7.54515 0
            CHANNELS 3 Yrotation Xrotation Zrotation
            JOINT LeftShoulder
            {
              OFFSET 13.6831 0 0
              CHANNELS 3 Yrotation Xrotation Zrotation
              JOINT LeftElbow
              {
                OFFSET 26.36 0 0
                CHANNELS 3 Yrotation Xrotation Zrotation
                JOINT LeftWrist
                {
                  OFFSET 21.7467 0 0.008601
                  CHANNELS 3 Yrotation Xrotation Zrotation
                  End Site
                  {
                    OFFSET 16.3481 0 0
                  }
                }
              }
            }
          }
        }
      }
    }
  }
  JOINT RightHip
  {
    OFFSET -8.62248 -0.030774 -0.00314
    CHANNELS 3 Yrotation Xrotation Zrotation
    JOINT RightKnee
    {
      OFFSET 0 -37.2092 -0.00263
      CHANNELS 3 Yrotation Xrotation Zrotation
      JOINT RightAnkle
      {
        OFFSET 0 -37.3433 -0.058479
        CHANNELS 3 Yrotation Xrotation Zrotation
        JOINT RightToe
        {
          OFFSET 0 -8.90347 15.0881
          CHANNELS 3 Yrotation Xrotation Zrotation
          End Site
          {
            OFFSET 0 -1.47174 6.88439
          }
        }
      }
    }
  }
  JOINT LeftHip
  {
    OFFSET 8.62248 -0.030774 -0.00314
    CHANNELS 3 Yrotation Xrotation Zrotation
    JOINT LeftKnee
    {
      OFFSET 0 -37.2092 -0.00263
      CHANNELS 3 Yrotation Xrotation Zrotation
      JOINT LeftAnkle
      {
        OFFSET 0 -37.3433 -0.058479
        CHANNELS 3 Yrotation Xrotation Zrotation
        JOINT LeftToe
        {
          OFFSET 0 -8.90347 15.0881
          CHANNELS 3 Yrotation Xrotation Zrotation
          End Site
          {
            OFFSET 0 -1.47174 6.88439
          }
        }
      }
    }
  }
}
MOTION
Frames:	16
Frame Time:	0.025
-68.1069 82.9969 -154.407 157.225 0.794968 -4.78156 -2.41056 4.36523 0.174296 -0.078518 0.183575 0.040615 -0.128534 0.300698 0.066391 -1.8625 4.44586 0.911706 1.23226 13.2783 -0.867689 2.68806 -11.4936 -2.14548 -0.620345 -10.1557 -1.12944 19.2158 -15.9687 66.0803 120.991 -5.52732 10.5787 3.86253 -2.65192 14.1476 16.4541 12.4479 14.4837 -12.513 29.6674 -83.4844 -77.7795 16.2731 -29.7149 5.87269 10.0397 -4.25418 23.8059 -0.149391 3.92446 2.1264 17.3883 -1.82181 3.2966 -15.1348 7.79913 0.241417 -3.75422 -5.70882 -15.6335 -1.50403 -0.1379 28.8538 29.3531 7.05247 1.01679 -17.8191 -2.97467 0.512099 -7.956 2.19632 
-66.9092 82.7626 -151.515 163.134 2.09083 -4.38365 -2.89676 4.76894 0.137654 -0.102439 0.258985 0.052631 -0.165877 0.419714 0.085053 -2.02898 5.24988 0.975941 0.465465 11.9786 -0.690104 1.18656 -13.9298 -1.51996 -0.529665 -12.4453 -0.671307 15.3964 -17.0545 66.5707 123.892 -3.62917 12.2411 4.44404 -1.70625 12.6868 14.7415 10.1309 11.7098 -13.7301 28.2331 -84.5879 -73.1932 17.4619 -25.162 4.82731 9.45547 -1.44005 29.5324 -4.73953 4.13053 -1.21868 21.6364 -1.80822 3.25963 -18.284 6.01411 0.205822 -0.62248 -2.58108 -15.9665 -4.64626 2.1572 19.9118 31.3134 4.36459 3.49588 -20.1323 -3.74374 0.188178 -6.29309 2.31128 
-65.531 82.7044 -148.755 168.287 1.20248 -3.4839 -2.27904 6.75364 -0.374245 -0.114989 0.37339 0.025659 -0.183993 0.597733 0.040715 -1.93304 6.33177 0.334627 -0.654698 10.6848 -0.142015 -1.20114 -16.3411 0.021557 -0.546187 -11.26 -0.554925 10.9877 -17.0784 70.0195 123.085 -5.27794 14.0801 7.81951 -1.72924 6.68637 11.8276 8.07738 7.70454 -14.6015 23.8509 -85.2412 -61.8364 19.1855 -17.4739 3.62959 8.89958 2.21023 31.2862 -7.22008 4.90408 -4.34515 25.166 -1.70641 3.49915 -19.7534 3.90302 0.119649 0.224145 -0.906254 -16.6851 -8.57857 4.31345 20.9677 36.5504 5.15655 0.55844 -19.2041 -3.87543 -0.575487 -8.17294 1.77212 
-64.4106 82.6934 -146.74 172.252 -0.631327 -2.98485 -0.61301 9.282 -0.73861 -0.103923 0.498445 -0.016211 -0.164539 0.788829 -0.026074 -1.54462 7.29891 -0.329735 -1.84291 9.65538 0.523955 -3.83909 -18.2112 1.88929 -0.594559 -7.88518 0.582547 11.3578 -15.5586 72.9804 116.69 -4.12297 12.5508 16.9175 -2.12199 -5.41987 9.16591 6.68941 2.71533 -16.5206 16.345 -84.2889 -43.8766 17.8521 -7.75612 0.677585 7.71905 8.04046 29.7513 -8.50513 7.21565 -7.02202 27.4045 -2.86961 3.27338 -18.8069 0.507632 0.092225 -0.458962 1.11348 -14.1294 -12.263 6.11642 22.9323 42.479 8.02721 -2.681 -16.0828 -5.16449 -1.26786 -12.2626 1.98864 
-63.3636 82.5883 -144.889 176.257 -1.11828 -2.44932 0.338954 10.2922 -0.70423 -0.059733 0.614348 -0.058448 -0.093925 0.963081 -0.091916 -0.83945 8.06057 -0.823578 -3.03056 9.14623 0.966689 -6.39622 -19.0748 3.34661 -0.815181 -4.30332 1.98348 11.806 -15.0882 76.5766 105.082 1.39421 9.16634 25.6086 -0.598568 -18.5458 6.61036 6.33975 -4.92174 -18.2801 6.06625 -78.8349 -22.9691 8.55028 -0.145161 -3.31283 5.78555 12.9911 23.1695 -8.41251 9.14274 -7.98468 26.7469 -5.40023 3.78812 -17.7852 -1.92366 0.111724 -0.242517 2.16246 -12.1757 -17.4342 7.53422 23.6702 48.3257 10.5964 -7.55785 -10.9009 -6.22408 -1.47307 -18.344 3.78506 
-62.5322 82.1967 -142.954 -179.483 -0.096573 -1.56309 0.223578 9.85645 -1.04114 0.00921 0.674712 -0.089722 0.013908 1.05266 -0.139939 0.039413 8.40532 -1.11742 -4.16137 9.30679 1.31635 -8.75777 -18.6677 4.55107 -1.46029 -2.3096 4.13809 11.379 -15.856 80.2739 86.9302 5.52357 3.73565 26.4343 0.437381 -23.0677 3.77448 2.03962 -15.5133 -16.7519 1.08985 -69.9309 -6.46548 2.70972 3.2369 -6.93502 4.66953 19.0136 16.0307 -8.76906 9.44892 -5.55586 25.915 -6.11834 3.14746 -18.5027 -4.1521 0.027603 1.14467 2.40864 -13.1517 -24.0432 9.01649 27.8577 54.0124 14.571 -10.475 -5.97688 -10.2145 -1.86065 -23.4545 7.73356 
-61.688 81.6009 -140.838 -177.007 1.7875 -1.34334 0.389181 8.74068 -1.14388 0.039056 0.664138 -0.094369 0.060499 1.03689 -0.147139 0.413351 8.33763 -1.15894 -4.53484 9.6696 1.65635 -9.60729 -17.93 5.34758 -0.919406 -2.26935 6.15822 9.66692 -17.0514 81.9401 63.7367 1.82903 0.518215 31.4951 0.365503 -28.3199 2.1651 -2.65451 -20.8228 -12.9493 -3.16696 -66.1849 2.45091 1.21718 4.38864 -7.94881 4.22788 25.7558 15.0777 -12.7945 9.34661 -2.7583 27.8785 -4.86361 -0.148987 -19.3644 -5.25437 0.341323 1.86349 1.73668 -13.8705 -30.4251 10.9642 32.2705 59.0609 19.1674 -8.93634 -4.09499 -16.2597 -1.73584 -22.5428 11.5263 
-60.5608 81.0476 -138.698 -175.777 2.21923 -1.80165 0.644397 9.01569 -0.796395 0.026845 0.733257 -0.085976 0.041228 1.139 -0.133408 0.249614 8.72334 -1.00755 -4.49631 9.67108 1.79133 -9.59487 -17.917 5.59177 1.0594 -3.17972 7.25829 4.18682 -19.009 81.2004 39.7354 -11.1182 4.69067 34.2078 -1.62036 -30.6242 2.61537 -4.58308 -21.2345 -7.89579 -8.11293 -67.6996 -1.64697 -2.16633 2.16685 -8.08902 3.77758 27.6916 19.6886 -18.1137 8.57005 -6.16961 32.0656 -4.11208 -1.26 -19.0356 -5.70444 0.159312 1.02239 0.931149 -14.7059 -33.7261 12.9704 39.2917 65.0338 26.548 -3.85608 -3.96 -18.7182 -0.320345 -18.7896 9.50573 
-59.5125 80.5148 -137.003 -174.018 1.3118 -1.94878 0.363738 10.3832 -0.516925 0.018666 0.799302 -0.070017 0.02845 1.23587 -0.108155 0.155509 9.07106 -0.785306 -4.64398 9.41019 1.79927 -9.91472 -18.3847 5.7063 2.39641 -2.79222 7.43212 12.4575 -14.3166 77.7432 27.4856 -29.3653 -0.238712 32.0424 -3.8623 -28.8728 2.92528 -4.61272 -20.076 -8.36088 -10.2509 -71.5863 -12.5947 -5.54713 1.06306 -8.0416 3.84918 23.4127 21.8147 -20.7208 8.14632 -11.1439 34.9041 -5.15388 -0.823675 -19.0836 -5.87215 0.140467 0.690442 0.586062 -16.7445 -33.4592 13.7178 52.7353 70.9654 39.8646 -0.991088 -5.99597 -17.796 0.029644 -11.4211 3.03488 
-58.5861 80.3724 -135.837 -172.101 1.55674 -1.91683 -0.227587 10.7302 -0.163956 0.000937 0.754785 -0.049261 0.001177 1.17091 -0.076419 -0.030218 8.85811 -0.581692 -4.62839 9.0776 1.79536 -9.92035 -19.0021 5.73138 1.81049 -0.340023 7.11803 9.39991 -11.0152 79.7986 19.6431 -23.6578 -0.759919 30.6311 -5.49058 -29.1402 3.02123 -4.26735 -20.0204 -13.9406 -10.0131 -72.2827 -25.8392 -7.7208 2.00128 -8.06388 3.74665 20.5188 18.6768 -22.0157 9.0149 -11.4489 35.5384 -6.5194 -0.081094 -18.8401 -5.94036 -0.141543 0.699727 0.337412 -20.5109 -31.324 14.8712 70.0808 76.3223 54.9927 -0.810282 -8.78101 -16.337 -0.381443 -6.4689 -0.219158 
-57.9981 80.5229 -135.142 -169.791 2.68305 -1.2902 -1.8499 10.3492 -0.460353 -0.066457 0.646463 -0.037418 -0.104117 1.01092 -0.058848 -0.88657 8.25478 -0.538021 -4.10669 8.93837 1.76818 -8.90313 -19.3122 5.44681 -0.057367 2.45002 6.1083 1.40479 -5.90347 83.1645 18.7584 -13.3353 0.518938 27.8545 -5.59104 -25.3149 3.84919 -4.48336 -20.7388 -16.4224 -8.90176 -71.3434 -41.2215 -8.92029 2.78092 -5.95434 2.46332 19.8443 11.5608 -22.0899 10.74 -8.57737 34.548 -8.28863 0.584959 -18.457 -5.99056 -0.174384 0.842107 0.362454 -22.1455 -28.0339 13.6792 83.8462 79.6345 67.5635 -0.542579 -11.3576 -14.8759 -0.423912 -4.15589 -1.01978 
-57.6495 80.8467 -134.702 -168.467 4.44053 -0.707903 -2.74604 9.43371 -0.898921 -0.122983 0.564535 -0.047621 -0.193662 0.887927 -0.075453 -1.72684 7.68615 -0.757961 -3.62965 8.81252 1.80736 -8.00103 -19.5836 5.30858 -3.10268 4.36888 4.60797 -3.49769 2.1485 85.141 23.5728 -7.52947 2.17633 26.0798 -6.60364 -21.1406 4.09426 -4.51922 -20.4229 -13.0212 -10.0305 -72.1499 -56.3096 -7.0824 0.907542 -3.38882 1.66428 18.2753 8.0236 -22.8342 11.4723 -6.87119 33.005 -9.3136 0.357515 -17.3329 -6.33032 0.029106 0.585751 0.628239 -20.8641 -23.868 10.4517 87.48 79.4545 71.3053 -0.690212 -12.811 -13.6259 -0.575391 -3.13092 -1.13237 
-57.2353 81.0559 -133.899 -168.599 6.70247 -0.384416 -2.89626 7.8762 -1.13768 -0.166306 0.501821 -0.055232 -0.262907 0.792547 -0.087907 -2.43789 7.16341 -0.933675 -3.06131 8.64313 1.54388 -6.7744 -19.9642 4.53349 -6.2787 5.53021 2.7597 -2.25229 11.3901 84.4613 30.6283 -6.45231 4.05989 25.2922 -8.56998 -16.9343 4.10928 -4.68774 -19.7497 -9.35468 -10.8319 -73.2743 -71.1454 -4.74987 -0.893076 -2.15806 1.15717 15.6673 7.41167 -25.745 11.3587 -6.53189 32.8808 -9.68669 0.237182 -15.4164 -6.7018 0.150013 -0.378974 0.621943 -18.4583 -18.9202 7.05616 76.0498 78.1388 59.7961 -1.48348 -13.3809 -12.8514 -0.270364 -2.45712 -0.448063 
-56.7626 80.9876 -132.824 -168.698 8.15131 -0.300422 -3.68719 6.92629 -1.24734 -0.217777 0.452624 -0.0515 -0.344993 0.716532 -0.082334 -3.2616 6.64143 -0.93597 -2.27578 8.62229 1.09332 -5.01279 -20.082 3.26714 -8.88527 6.15937 0.665437 1.33722 21.1882 83.0718 39.1581 -5.59049 5.68338 24.5192 -9.97106 -11.9109 3.82358 -4.79077 -19.1684 -6.65168 -12.8549 -72.6401 -84.1585 -4.24015 -1.85848 -1.39431 0.152119 12.6381 8.05545 -28.4782 10.7151 -6.75732 33.3065 -9.36824 0.084457 -14.1332 -6.79572 0.125239 -0.684864 0.329959 -18.8321 -12.8019 4.13934 58.894 75.5305 40.2661 -2.69293 -13.473 -12.7879 0.404531 -1.82835 0.853309 
-56.3444 80.6125 -131.809 -168.776 9.00087 0.204943 -4.9588 6.45747 -1.83272 -0.273633 0.422192 -0.046678 -0.433386 0.668315 -0.074834 -4.07731 6.18682 -0.893587 -1.33919 8.62373 0.694584 -2.97577 -20.1372 2.02437 -10.9907 6.33243 -1.32573 2.19606 30.4592 80.0098 48.7788 -2.14193 9.01079 24.3354 -10.2521 -8.01739 2.78293 -4.8109 -18.0603 -5.08287 -15.8792 -70.9207 -95.8216 -4.88791 -0.83745 -0.874605 -0.889943 11.0745 8.071 -30.7344 10.1168 -7.77838 34.4882 -9.83723 0.422042 -14.1659 -7.03968 0.442602 -0.376725 0.37362 -22.5116 -6.72847 0.467585 45.4934 69.6011 21.5726 -3.46708 -13.2857 -13.3178 1.33145 -0.751938 2.19064 
-55.9048 79.8796 -130.679 -169.887 9.79895 0.312037 -5.77719 5.86969 -2.13186 -0.34197 0.417818 -0.048049 -0.53981 0.659198 -0.076962 -4.88934 5.88086 -0.914749 -0.075638 8.48834 0.335972 -0.315098 -20.4205 0.699219 -12.0099 6.2619 -3.68559 -1.2181 37.9899 73.5645 58.5083 1.3815 15.4082 24.4 -10.3055 -5.70411 1.47884 -4.98561 -15.6151 -2.71531 -18.977 -69.624 -106.862 -5.78175 0.885553 -0.235385 -1.80847 9.90809 8.11318 -33.8167 10.1467 -8.64959 37.0264 -10.6779 0.892681 -14.6563 -7.17144 0.573137 -0.069066 0.413738 -27.4565 -1.92972 -4.08551 41.8892 60.1646 11.5029 -2.77585 -13.376 -14.1794 1.9472 0.895155 2.88515 
